<?xml version="1.0" encoding="UTF-8" standalone="no"?>
<!-- Created with Inkscape (http://www.inkscape.org/) -->

<svg
   width="64pt"
   height="64pt"
   viewBox="0 0 22.577778 22.577778"
   version="1.1"
   id="svg831"
   inkscape:version="1.1.2 (0a00cf5339, 2022-02-04)"
   sodipodi:docname="26 - Real Estate Profit.svg"
   inkscape:export-filename="/media/taufikramadhan/Data/Tr Design Studio/Project Design/TR Creative Design/Icon Design/Project Hiring/Icon Icons/024 - Real Estate And Building/5 - Send/4 - Filledline/26 - Real Estate Profit.png"
   inkscape:export-xdpi="576"
   inkscape:export-ydpi="576"
   xmlns:inkscape="http://www.inkscape.org/namespaces/inkscape"
   xmlns:sodipodi="http://sodipodi.sourceforge.net/DTD/sodipodi-0.dtd"
   xmlns="http://www.w3.org/2000/svg"
   xmlns:svg="http://www.w3.org/2000/svg"
   xmlns:rdf="http://www.w3.org/1999/02/22-rdf-syntax-ns#"
   xmlns:cc="http://creativecommons.org/ns#"
   xmlns:dc="http://purl.org/dc/elements/1.1/">
  <defs
     id="defs825">
    <pattern
       id="EMFhbasepattern"
       patternUnits="userSpaceOnUse"
       width="6"
       height="6"
       x="0"
       y="0" />
    <pattern
       id="EMFhbasepattern-9"
       patternUnits="userSpaceOnUse"
       width="6"
       height="6"
       x="0"
       y="0" />
    <pattern
       id="EMFhbasepattern-0"
       patternUnits="userSpaceOnUse"
       width="6"
       height="6"
       x="0"
       y="0" />
    <pattern
       id="EMFhbasepattern-7"
       patternUnits="userSpaceOnUse"
       width="6"
       height="6"
       x="0"
       y="0" />
    <pattern
       id="EMFhbasepattern-2"
       patternUnits="userSpaceOnUse"
       width="6"
       height="6"
       x="0"
       y="0" />
    <pattern
       id="EMFhbasepattern-98"
       patternUnits="userSpaceOnUse"
       width="6"
       height="6"
       x="0"
       y="0" />
    <pattern
       id="EMFhbasepattern-6"
       patternUnits="userSpaceOnUse"
       width="6"
       height="6"
       x="0"
       y="0" />
    <pattern
       id="EMFhbasepattern-01"
       patternUnits="userSpaceOnUse"
       width="6"
       height="6"
       x="0"
       y="0" />
    <pattern
       id="EMFhbasepattern-07"
       patternUnits="userSpaceOnUse"
       width="6"
       height="6"
       x="0"
       y="0" />
    <pattern
       id="EMFhbasepattern-8"
       patternUnits="userSpaceOnUse"
       width="6"
       height="6"
       x="0"
       y="0" />
    <pattern
       id="EMFhbasepattern-4"
       patternUnits="userSpaceOnUse"
       width="6"
       height="6"
       x="0"
       y="0" />
    <pattern
       id="EMFhbasepattern-40"
       patternUnits="userSpaceOnUse"
       width="6"
       height="6"
       x="0"
       y="0" />
    <pattern
       id="EMFhbasepattern-08"
       patternUnits="userSpaceOnUse"
       width="6"
       height="6"
       x="0"
       y="0" />
    <pattern
       id="EMFhbasepattern-04"
       patternUnits="userSpaceOnUse"
       width="6"
       height="6"
       x="0"
       y="0" />
    <pattern
       id="EMFhbasepattern-014"
       patternUnits="userSpaceOnUse"
       width="6"
       height="6"
       x="0"
       y="0" />
    <pattern
       id="EMFhbasepattern-27"
       patternUnits="userSpaceOnUse"
       width="6"
       height="6"
       x="0"
       y="0" />
    <pattern
       id="EMFhbasepattern-09"
       patternUnits="userSpaceOnUse"
       width="6"
       height="6"
       x="0"
       y="0" />
    <pattern
       id="EMFhbasepattern-5"
       patternUnits="userSpaceOnUse"
       width="6"
       height="6"
       x="0"
       y="0" />
    <pattern
       id="EMFhbasepattern-018"
       patternUnits="userSpaceOnUse"
       width="6"
       height="6"
       x="0"
       y="0" />
  </defs>
  <sodipodi:namedview
     id="base"
     pagecolor="#ffffff"
     bordercolor="#666666"
     borderopacity="1.0"
     inkscape:pageopacity="0.0"
     inkscape:pageshadow="2"
     inkscape:zoom="3.0256407"
     inkscape:cx="42.635598"
     inkscape:cy="42.800852"
     inkscape:document-units="pt"
     inkscape:current-layer="layer1"
     showgrid="false"
     units="pt"
     inkscape:window-width="996"
     inkscape:window-height="713"
     inkscape:window-x="362"
     inkscape:window-y="26"
     inkscape:window-maximized="0"
     inkscape:pagecheckerboard="true"
     inkscape:showpageshadow="false"
     inkscape:object-paths="true"
     inkscape:snap-intersection-paths="true"
     inkscape:snap-smooth-nodes="true"
     inkscape:snap-midpoints="true"
     showguides="true"
     inkscape:snap-bbox="true"
     inkscape:bbox-nodes="true"
     inkscape:snap-nodes="false"
     inkscape:snap-global="true"
     inkscape:snap-others="false">
    <inkscape:grid
       type="xygrid"
       id="grid1378" />
    <sodipodi:guide
       position="0.97013831,21.607643"
       orientation="78.000048,0"
       id="guide1380"
       inkscape:locked="false" />
    <sodipodi:guide
       position="0.97013831,0.97013129"
       orientation="0,78.000005"
       id="guide1382"
       inkscape:locked="false" />
    <sodipodi:guide
       position="21.607639,0.97013129"
       orientation="-78.000048,0"
       id="guide1384"
       inkscape:locked="false" />
    <sodipodi:guide
       position="21.607639,21.607643"
       orientation="0,-78.000005"
       id="guide1386"
       inkscape:locked="false" />
  </sodipodi:namedview>
  <metadata
     id="metadata828">
    <rdf:RDF>
      <cc:Work
         rdf:about="">
        <dc:format>image/svg+xml</dc:format>
        <dc:type
           rdf:resource="http://purl.org/dc/dcmitype/StillImage" />
      </cc:Work>
    </rdf:RDF>
  </metadata>
  <g
     inkscape:label="Icon"
     inkscape:groupmode="layer"
     id="layer1"
     transform="translate(0,-274.42223)">
    <g
       id="g2366"
       style="display:inline;stroke-width:0.794897"
       transform="matrix(1.2580249,0,0,1.2580249,38.660213,-192.74071)">
      <g
         id="g91018"
         style="display:inline;stroke-width:0.794897"
         transform="translate(0.278947,0.27895)">
        <path
           style="color:#000000;fill:#e2f0fa;stroke-width:0.794897;stroke-linecap:round;stroke-linejoin:round;stroke-miterlimit:1.5;-inkscape-stroke:none"
           d="m -25.78125,376.78125 a 0.26460996,0.26460996 0 0 0 -0.263672,0.26562 v 9.28516 a 0.26460996,0.26460996 0 0 0 0.263672,0.26367 h 9.884766 a 0.26460996,0.26460996 0 0 0 0.265625,-0.26367 v -9.28516 a 0.26460996,0.26460996 0 0 0 -0.265625,-0.26562 z"
           id="path24366" />
        <path
           style="color:#000000;fill:#ff7247;stroke-width:0.794897;stroke-linecap:round;stroke-linejoin:round;stroke-miterlimit:1.5;-inkscape-stroke:none"
           d="m -25.181641,374.68555 a 0.26460996,0.26460996 0 0 0 -0.242187,0.16015 l -0.898438,2.09766 a 0.26460996,0.26460996 0 0 0 0.242188,0.36719 h 10.484375 a 0.26460996,0.26460996 0 0 0 0.242187,-0.36719 l -0.898437,-2.09766 a 0.26460996,0.26460996 0 0 0 -0.242188,-0.16015 z"
           id="path24372" />
        <path
           style="color:#000000;fill:#c8dae5;stroke-width:0.794897;stroke-linecap:round;stroke-linejoin:round;stroke-miterlimit:1.5;-inkscape-stroke:none"
           d="M -22.486328,378.87891 A 0.26460996,0.26460996 0 0 0 -22.75,379.14258 v 7.18945 a 0.26460996,0.26460996 0 0 0 0.263672,0.26367 h 8.386719 a 0.26460996,0.26460996 0 0 0 0.265625,-0.26367 v -7.18945 a 0.26460996,0.26460996 0 0 0 -0.265625,-0.26367 z"
           id="path24378" />
        <path
           style="color:#000000;fill:#4895ef;stroke-width:0.794897;stroke-linecap:round;stroke-linejoin:round;stroke-miterlimit:1.5;-inkscape-stroke:none"
           d="m -21.287109,383.67187 a 0.26460996,0.26460996 0 0 0 -0.265625,0.26368 v 2.39648 a 0.26460996,0.26460996 0 0 0 0.265625,0.26367 h 1.498047 a 0.26460996,0.26460996 0 0 0 0.263671,-0.26367 v -2.39648 a 0.26460996,0.26460996 0 0 0 -0.263671,-0.26368 z"
           id="path24384" />
        <path
           style="color:#000000;fill:#9ccc65;stroke-width:0.794897;stroke-linecap:round;stroke-linejoin:round;stroke-miterlimit:1.5;-inkscape-stroke:none"
           d="m -19.789062,383.07227 a 0.26460996,0.26460996 0 0 0 -0.265625,0.26367 v 2.99609 a 0.26460996,0.26460996 0 0 0 0.265625,0.26367 h 1.496093 a 0.26460996,0.26460996 0 0 0 0.265625,-0.26367 v -2.99609 a 0.26460996,0.26460996 0 0 0 -0.265625,-0.26367 z"
           id="path24390" />
        <path
           style="color:#000000;fill:#4895ef;stroke-width:0.794897;stroke-linecap:round;stroke-linejoin:round;stroke-miterlimit:1.5;-inkscape-stroke:none"
           d="m -18.292969,381.57422 a 0.26460996,0.26460996 0 0 0 -0.263672,0.26562 v 4.49219 a 0.26460996,0.26460996 0 0 0 0.263672,0.26367 h 1.498047 a 0.26460996,0.26460996 0 0 0 0.265625,-0.26367 v -4.49219 a 0.26460996,0.26460996 0 0 0 -0.265625,-0.26562 z"
           id="path24396" />
        <path
           style="color:#000000;fill:#9ccc65;stroke-width:0.794897;stroke-linecap:round;stroke-linejoin:round;stroke-miterlimit:1.5;-inkscape-stroke:none"
           d="m -16.794922,380.07617 a 0.26460996,0.26460996 0 0 0 -0.263672,0.26563 v 5.99023 a 0.26460996,0.26460996 0 0 0 0.263672,0.26367 h 1.498047 a 0.26460996,0.26460996 0 0 0 0.265625,-0.26367 v -5.99023 a 0.26460996,0.26460996 0 0 0 -0.265625,-0.26563 z"
           id="path24402" />
        <path
           style="color:#000000;fill:#c8dae5;stroke-width:0.794897;stroke-linecap:round;stroke-linejoin:round;stroke-miterlimit:1.5;-inkscape-stroke:none"
           d="m -26.974609,377.72461 -2.845703,1.88672 a 0.26460996,0.26460996 0 0 0 -0.119141,0.2207 v 6.5 a 0.26460996,0.26460996 0 0 0 0.265625,0.26367 h 5.691406 a 0.26460996,0.26460996 0 0 0 0.263672,-0.26367 v -6.5 a 0.26460996,0.26460996 0 0 0 -0.117187,-0.2207 l -2.845704,-1.88672 a 0.26460996,0.26460996 0 0 0 -0.292968,0 z"
           id="path24420" />
        <path
           style="color:#000000;fill:#ff7247;stroke-width:0.794897;stroke-linecap:round;stroke-linejoin:round;stroke-miterlimit:1.5;-inkscape-stroke:none"
           d="m -26.974609,377.72461 -3.146485,2.09766 a 0.2645835,0.2645835 0 0 0 -0.07227,0.36718 0.2645835,0.2645835 0 0 0 0.367187,0.0723 l 2.998047,-1.99805 2.998047,1.99805 a 0.2645835,0.2645835 0 0 0 0.367187,-0.0723 0.2645835,0.2645835 0 0 0 -0.07422,-0.36718 l -3.144532,-2.09766 a 0.26460996,0.26460996 0 0 0 -0.292968,0 z"
           id="path92969" />
        <g
           id="g56572"
           style="stroke-width:0.794897">
          <path
             style="color:#000000;fill:#fd8c35;stroke-width:0.794897;stroke-linecap:round;stroke-linejoin:round;stroke-miterlimit:1.5;-inkscape-stroke:none"
             d="m -29.3125,384.57031 c -0.508448,0 -0.925781,0.41734 -0.925781,0.92578 v 0.17383 c 0,0.50845 0.417333,0.92578 0.925781,0.92578 h 3.169922 c 0.508447,0 0.925781,-0.41733 0.925781,-0.92578 v -0.17383 c 0,-0.50844 -0.417334,-0.92578 -0.925781,-0.92578 z"
             id="path24220" />
        </g>
        <g
           id="g56567"
           style="stroke-width:0.794897">
          <path
             style="color:#000000;fill:#fd8c35;stroke-width:0.794897;stroke-linecap:round;stroke-linejoin:round;stroke-miterlimit:1.5;-inkscape-stroke:none"
             d="m -29.013672,383.07227 c -0.508447,0 -0.925781,0.41733 -0.925781,0.92578 v 0.17578 c 0,0.50844 0.417334,0.92578 0.925781,0.92578 h 3.171875 c 0.508448,0 0.925781,-0.41734 0.925781,-0.92578 v -0.17578 c 0,-0.50845 -0.417333,-0.92578 -0.925781,-0.92578 z"
             id="path24226" />
        </g>
        <path
           style="color:#000000;fill:#e2f0fa;stroke-width:0.794897;stroke-linecap:round;stroke-linejoin:round;stroke-miterlimit:1.5;-inkscape-stroke:none"
           d="m -20.054687,373.75195 v 1.79688 c -5.62e-4,0.14693 0.118693,0.26618 0.265625,0.26562 h 1.796875 c 0.146168,-5.2e-4 0.26423,-0.11945 0.263671,-0.26562 v -1.79688 z"
           id="path24472"
           sodipodi:nodetypes="ccccccc" />
        <g
           id="g49130"
           style="stroke-width:0.794897">
          <g
             id="g49124"
             style="stroke-width:0.794897">
            <path
               style="color:#000000;fill:#fd8c35;stroke-width:0.794897;stroke-linecap:round;stroke-linejoin:round;stroke-miterlimit:1.5;-inkscape-stroke:none"
               d="m -29.3125,381.57422 c -0.508448,0 -0.925781,0.41734 -0.925781,0.92578 v 0.17578 c 0,0.50844 0.417333,0.92578 0.925781,0.92578 h 3.169922 c 0.508447,0 0.925781,-0.41734 0.925781,-0.92578 V 382.5 c 0,-0.50844 -0.417334,-0.92578 -0.925781,-0.92578 z"
               id="path24232" />
          </g>
        </g>
      </g>
      <path
         id="rect88876"
         style="color:#000000;fill:#000000;stroke-width:0.794897;stroke-linecap:round;stroke-linejoin:round;stroke-miterlimit:1.5;-inkscape-stroke:none"
         d="m -19.810987,373.76503 c -0.146126,5.3e-4 -0.264122,0.11949 -0.26355,0.26561 5.56e-4,0.14532 0.118231,0.26299 0.26355,0.26355 h 0.03514 v 0.67025 h -5.126819 c -0.105424,2.6e-4 -0.200745,0.0633 -0.242363,0.16019 l -0.898653,2.09755 c -0.07306,0.17372 0.05391,0.36567 0.242363,0.3669 h 0.03514 v 0.83923 l -0.636654,-0.42478 c -0.08875,-0.059 -0.204264,-0.059 -0.293005,0 l -3.146578,2.09754 c -0.121367,0.0814 -0.153805,0.24556 -0.07235,0.36691 0.05785,0.0862 0.157813,0.12725 0.254249,0.11472 v 0.63769 c 5.29e-4,0.14617 0.11944,0.26412 0.265617,0.26355 0.145413,-5.3e-4 0.263049,-0.11814 0.263549,-0.26355 v -0.95705 l 2.581754,-1.72083 2.580205,1.71928 v 6.08541 h -1.059883 c 0.05832,-0.12095 0.09147,-0.256 0.09147,-0.39842 v -0.17415 c 0,-0.19292 -0.06043,-0.37255 -0.162781,-0.52142 0.276242,-0.16082 0.463538,-0.46005 0.463538,-0.80046 v -0.1757 c 0,-0.34047 -0.187226,-0.64018 -0.463538,-0.80099 0.102347,-0.14887 0.162781,-0.32849 0.162781,-0.52141 v -0.1757 c 0,-0.50844 -0.417595,-0.92605 -0.926042,-0.92605 h -3.169832 c -0.508448,0 -0.926042,0.41761 -0.926042,0.92605 v 0.1757 c 0,0.33984 0.186505,0.63892 0.461986,0.79995 -0.102595,0.14898 -0.162779,0.32927 -0.162779,0.52245 v 0.1757 c 0,0.19332 0.06004,0.37339 0.162779,0.52244 -0.275434,0.16104 -0.461986,0.45963 -0.461986,0.79944 v 0.17415 c 0,0.50845 0.417594,0.92552 0.926042,0.92552 h 3.169832 c 4.014398,0 8.028796,0 12.043193,0 0.146121,5.3e-4 0.265034,-0.11743 0.265617,-0.26355 v -7.18922 c -2.91e-4,-0.14632 -0.119296,-0.26463 -0.265617,-0.26407 h -1.531689 v -1.56838 h 0.03514 c 0.188453,-0.001 0.315424,-0.19318 0.242362,-0.3669 l -0.898136,-2.09755 c -0.04162,-0.0969 -0.136939,-0.15982 -0.242363,-0.16019 h -1.23455 v -0.67025 h 0.03514 c 0.146125,5.3e-4 0.265046,-0.11742 0.265617,-0.26355 5.82e-4,-0.14693 -0.118683,-0.26619 -0.265617,-0.26561 h -0.29869 -1.796789 z m 0.564307,0.52916 h 1.267623 v 1.53324 c -5.83e-4,0.14694 0.118682,0.26619 0.265616,0.26562 0.146127,-5.3e-4 0.264122,-0.11949 0.26355,-0.26562 v -0.33383 h 1.05885 l 0.671794,1.56632 h -9.679513 l 0.671794,-1.56632 h 4.951119 v 0.33383 c -5.82e-4,0.14694 0.118683,0.26619 0.265617,0.26562 0.146126,-5.3e-4 0.264122,-0.11949 0.26355,-0.26562 z m -5.990333,3.29489 h 9.355502 v 1.56838 h -6.326229 c -0.145515,5.3e-4 -0.263253,0.11855 -0.26355,0.26407 v 6.92567 h -0.968933 v -5.7645 c 0.09706,0.0134 0.198058,-0.0279 0.256315,-0.11472 0.08108,-0.12185 0.04763,-0.28611 -0.07441,-0.36691 l -1.978691,-1.31981 z m 3.29489,2.09806 h 7.857402 v 6.66006 h -0.66766 v -5.72678 c 5.56e-4,-0.14693 -0.118689,-0.26618 -0.265617,-0.26562 h -1.4981 c -0.14612,5.3e-4 -0.264107,0.1195 -0.263549,0.26562 v 1.23248 h -1.234551 c -0.14612,5.3e-4 -0.264107,0.1195 -0.263549,0.26562 v 1.23248 h -1.232483 c -0.14612,-5.2e-4 -0.265032,0.11743 -0.265617,0.26355 v 0.3359 h -1.232483 c -0.146321,-5.3e-4 -0.265318,0.11774 -0.265617,0.26407 v 2.13268 h -0.668176 z m 0.933793,0.66766 c -0.146934,-5.2e-4 -0.266192,0.11869 -0.265617,0.26562 5.82e-4,0.14613 0.119492,0.26412 0.265617,0.26355 h 0.599447 c 0.145318,-5.3e-4 0.262982,-0.11823 0.263549,-0.26355 5.83e-4,-0.14612 -0.117423,-0.26505 -0.263549,-0.26562 z m 4.757849,5.9924 v -4.22868 -1.23455 h 0.968933 v 5.46323 z m -4.757849,-4.79299 c -0.146127,-5.3e-4 -0.265048,0.11743 -0.265617,0.26356 -5.82e-4,0.14693 0.118684,0.26618 0.265617,0.26561 h 1.79679 c 0.146125,-5.3e-4 0.26412,-0.11949 0.263549,-0.26561 -5.55e-4,-0.14532 -0.11823,-0.26299 -0.263549,-0.26356 z m -8.02535,0.82786 h 0.271301 v 0.0351 c 2.64e-4,0.14633 0.11929,0.26464 0.265618,0.26407 0.14552,-5.3e-4 0.263265,-0.11855 0.263548,-0.26407 v -0.0351 h 0.519864 v 0.33435 c -5.29e-4,0.14693 0.118684,0.26619 0.265618,0.26562 0.146127,-5.3e-4 0.26412,-0.1195 0.263549,-0.26562 v -0.33435 h 0.519351 v 0.0351 c 2.64e-4,0.14572 0.118342,0.26378 0.264064,0.26407 0.146328,5.3e-4 0.265334,-0.11774 0.265618,-0.26407 v -0.0351 h 0.271301 c 0.22444,0 0.396358,0.17244 0.396358,0.39688 v 0.1757 c 0,0.22444 -0.171918,0.39635 -0.396358,0.39635 h -3.169832 c -0.224441,0 -0.396359,-0.17191 -0.396359,-0.39635 v -0.1757 c 0,-0.22444 0.171918,-0.39688 0.396359,-0.39688 z m 11.285099,0 h 0.968934 v 3.96513 h -0.968934 v -2.73265 z m -3.259749,0.36949 c -0.146933,-5.3e-4 -0.266191,0.11868 -0.265617,0.26561 5.82e-4,0.14613 0.11949,0.26413 0.265617,0.26356 h 0.29869 c 0.146126,5.3e-4 0.265048,-0.11743 0.265616,-0.26356 5.83e-4,-0.14693 -0.118683,-0.26618 -0.265616,-0.26561 z m -7.72666,1.12861 h 0.273368 v 0.33435 c -5.29e-4,0.14612 0.117422,0.26504 0.263549,0.26562 0.147134,7.9e-4 0.26671,-0.11849 0.266133,-0.26562 v -0.33435 h 0.519348 v 0.0351 c 2.65e-4,0.14552 0.118031,0.2635 0.263552,0.26407 0.145521,-5.3e-4 0.263266,-0.11855 0.263549,-0.26407 v -0.0351 h 0.519866 v 0.33435 c -5.29e-4,0.14693 0.118682,0.26619 0.265616,0.26562 0.146126,-5.3e-4 0.264122,-0.1195 0.26355,-0.26562 v -0.33435 h 0.273368 c 0.22444,0 0.396358,0.17244 0.396358,0.39688 v 0.1757 c 0,0.22443 -0.171918,0.39635 -0.396358,0.39635 h -0.300757 -2.871142 c -0.22444,0 -0.396359,-0.17192 -0.396359,-0.39635 v -0.1757 c 0,-0.22444 0.171919,-0.39688 0.396359,-0.39688 z m 9.48831,0 h 0.968933 v 2.46703 h -0.968933 v -2.13268 z m -1.4981,0.59997 h 0.968933 v 1.86706 h -0.968933 z m -8.2889,0.89813 h 0.271301 v 0.0351 c 5.29e-4,0.14613 0.119491,0.26412 0.265618,0.26355 0.145319,-5.3e-4 0.262982,-0.11823 0.263548,-0.26355 v -0.0351 h 0.519864 v 0.33383 c 2.65e-4,0.14633 0.11929,0.26464 0.265618,0.26407 0.145521,-5.3e-4 0.263266,-0.11855 0.263549,-0.26407 v -0.33383 h 0.519351 v 0.0351 c 5.29e-4,0.14552 0.118544,0.26327 0.264064,0.26355 0.146127,5.3e-4 0.265049,-0.11742 0.265618,-0.26355 v -0.0351 h 0.271301 c 0.22444,0 0.396358,0.17193 0.396358,0.39636 v 0.17415 c 0,0.22444 -0.171918,0.39842 -0.396358,0.39842 h -3.169832 c -0.224441,0 -0.396359,-0.17398 -0.396359,-0.39842 v -0.17415 c 0,-0.22443 0.171918,-0.39636 0.396359,-0.39636 z"
         sodipodi:nodetypes="csccccccccccccccccccccccsscsscsssssscsscsssccccccccccccccscccccccsccccccccscccccccccccccccccccccccccccccccccccsccscccccccccsccsccsccsccccscccccccsssssssscccccccsccsccsccccccccccccsccsssscsssscccccccccccsccsccccscccccccssssssss" />
    </g>
  </g>
</svg>
